<svg xmlns="http://www.w3.org/2000/svg" viewBox="0 0 38.64 31.78"><defs><style>.cls-1{fill:#5a5b5b;}</style></defs><title>Asset 72</title><g id="Layer_2" data-name="Layer 2"><g id="Layer_1-2" data-name="Layer 1"><path class="cls-1" d="M31.6,16s0-.08,0-.12,0-.16,0-.24,0-.17,0-.25a2.7,2.7,0,0,0-.38-.94h0l0,0a2.84,2.84,0,0,0-.36-.45h0l-.12-.09a2.84,2.84,0,0,0-.36-.28l-.16-.08a2.8,2.8,0,0,0-.38-.18l-.19-.06a2.83,2.83,0,0,0-.39-.09l-.1,0H29l.44-.44h0l.05-.05a2.78,2.78,0,0,0,.24-.29l0-.05A2.8,2.8,0,0,0,30.29,11v0a2.86,2.86,0,0,0,0-.43c0-.06,0-.11,0-.16a2.78,2.78,0,0,0,0-.3,2.72,2.72,0,0,0-.12-.4l0-.08a2.68,2.68,0,0,0-.24-.46h0a2.83,2.83,0,0,0-.37-.45h0l-.11-.09A2.84,2.84,0,0,0,29,8.26l-.16-.08A2.8,2.8,0,0,0,28.46,8l-.2-.06a2.83,2.83,0,0,0-.38-.08l-.1,0h-.07L28,7.56a2.8,2.8,0,0,0,.8-1.68V5.83c0-.09,0-.18,0-.28s0-.08,0-.13,0-.14,0-.21,0-.18,0-.27a2.7,2.7,0,0,0-.14-.46v0A2.68,2.68,0,0,0,28.37,4V4A2.84,2.84,0,0,0,28,3.55l0,0-.1-.08a2.84,2.84,0,0,0-.38-.29l-.15-.08A2.81,2.81,0,0,0,27,2.9l-.19-.06a2.83,2.83,0,0,0-.4-.09l-.09,0h-.51l-.21,0a2.84,2.84,0,0,0-.39.09L25,2.9a2.81,2.81,0,0,0-.39.19l-.15.08a2.82,2.82,0,0,0-.47.38l-.27.27V3.75s0-.07,0-.1a2.81,2.81,0,0,0-.08-.38c0-.07,0-.14-.06-.21a2.79,2.79,0,0,0-.17-.36c0-.06-.06-.12-.09-.17A2.85,2.85,0,0,0,23,2.18l-.1-.12V2a2.83,2.83,0,0,0-.45-.37h0A2.67,2.67,0,0,0,22,1.42l-.05,0a2.72,2.72,0,0,0-.42-.12l-.28,0-.18,0a2.84,2.84,0,0,0-.42,0h0a2.81,2.81,0,0,0-1.34.52l0,0a2.79,2.79,0,0,0-.3.24l-.33.33-12,12,1-4.76a2.9,2.9,0,0,0-2-3.46A2.84,2.84,0,0,0,2.08,8.25L.24,17.41A12,12,0,0,0,20.49,28.27l2.66-2.66h0L30.77,18a2.8,2.8,0,0,0,.8-1.67v-.07C31.58,16.16,31.6,16.07,31.6,16ZM24.69,4.25A1.85,1.85,0,0,1,25,4a1.92,1.92,0,0,1,2,0l.13.1.16.12a1.93,1.93,0,0,1,.25.3l0,0a1.71,1.71,0,0,1,.21.51l0,.05a1.94,1.94,0,0,1-.54,1.75L25.48,8.65,18.16,16a33.58,33.58,0,0,0-2.76-2.44Zm1.51,5.1a1.83,1.83,0,0,1,.3-.24L26.61,9l.22-.11.15,0,.23-.05h.53L28,8.9l.13,0,.21.1.14.07.2.15.1.09a1.94,1.94,0,0,1,.25.3l0,0a1.71,1.71,0,0,1,.21.51l0,.05A1.94,1.94,0,0,1,28.73,12l-1.58,1.58-.4.4-5.63,5.63a18.09,18.09,0,0,0-2.28-2.92ZM19.78,27.56a11,11,0,0,1-18.56-10L3.06,8.46A1.84,1.84,0,0,1,4.85,7a1.87,1.87,0,0,1,.49.07A1.93,1.93,0,0,1,6.62,9.37l-1,4.76a1,1,0,0,0,1.7.93L19.53,2.8a1.94,1.94,0,0,1,1.75-.54l.06,0a1.72,1.72,0,0,1,.49.21l.06,0a1.94,1.94,0,0,1,.3.24l.11.14a1.74,1.74,0,0,1,.13.17s.05.1.08.15a1.82,1.82,0,0,1,.09.2s0,.09,0,.14a1.83,1.83,0,0,1,.05.25s0,.08,0,.13a1.92,1.92,0,0,1,0,.27s0,.09,0,.13a1.83,1.83,0,0,1-.06.25s0,.08,0,.13a1.83,1.83,0,0,1-.11.24L22.43,5a1.82,1.82,0,0,1-.22.27l0,0-7.89,7.89-.41.41.47.35c.05,0,5.42,4,6.66,7.64a.5.5,0,0,0,.47.34l.16,0A.5.5,0,0,0,22,21.3a7.7,7.7,0,0,0-.33-.78l5.84-5.84a1.81,1.81,0,0,1,.31-.25l.07,0a1.82,1.82,0,0,1,.29-.14l.08,0,.3-.07H29l.26.06.13,0,.21.1.14.07.18.14.12.1a1.94,1.94,0,0,1,.24.29l0,.07a1.72,1.72,0,0,1,.2.48l0,.07A1.94,1.94,0,0,1,30,17.33Z"/><path class="cls-1" d="M3,2a.5.5,0,0,0,.25-.07,7,7,0,0,1,6.9-.05A.5.5,0,0,0,10.62,1a8,8,0,0,0-7.9.06A.5.5,0,0,0,3,2Z"/><path class="cls-1" d="M11,16.64a.5.5,0,0,0,0,.71,4.51,4.51,0,0,1,0,6.37.5.5,0,1,0,.71.71,5.51,5.51,0,0,0,0-7.78A.5.5,0,0,0,11,16.64Z"/><path class="cls-1" d="M37.56,11a.5.5,0,1,0-.86.5,7,7,0,0,1,.05,6.9.5.5,0,0,0,.87.49A8,8,0,0,0,37.56,11Z"/></g></g></svg>